<svg fill="none" style="cursor:pointer;" height="36px" viewBox="0 0 24 24" width="36px" xmlns="http://www.w3.org/2000/svg"><path clip-rule="evenodd" d="M16.9497 7.05028C17.3402 7.4408 17.3402 8.07397 16.9497 8.46449L8.46443 16.9498C8.07391 17.3403 7.44074 17.3403 7.05022 16.9498C6.65969 16.5592 6.65969 15.9261 7.05022 15.5356L15.5355 7.05028C15.926 6.65975 16.5592 6.65975 16.9497 7.05028Z" fill="white" fill-rule="evenodd"/><path clip-rule="evenodd" d="M7.05022 7.05028C7.44074 6.65975 8.07391 6.65975 8.46443 7.05028L16.9497 15.5356C17.3402 15.9261 17.3402 16.5592 16.9497 16.9498C16.5592 17.3403 15.926 17.3403 15.5355 16.9498L7.05022 8.46449C6.65969 8.07397 6.65969 7.4408 7.05022 7.05028Z" fill="white" fill-rule="evenodd"/></svg>